<?xml version="1.0" encoding="utf-8"?>
<!-- Generator: Adobe Illustrator 22.0.0, SVG Export Plug-In . SVG Version: 6.00 Build 0)  -->
<svg version="1.1" id="Layer_1" xmlns="http://www.w3.org/2000/svg" xmlns:xlink="http://www.w3.org/1999/xlink" x="0px" y="0px"
	 viewBox="0 0 199.4 57.6" style="enable-background:new 0 0 199.4 57.6;" xml:space="preserve">
<style type="text/css">
	.st0{fill:#EE4036;}
</style>
<g>
	<g>
		<path class="st0" d="M14.8,46.7c-0.2,0-0.5-0.1-1-0.4L2.2,35.7c-0.6-0.5-1-0.9-1.2-1.1c-0.2-0.2-0.5-0.6-0.7-0.9
			C0.1,33.3,0,32.8,0,32.4v-1.5c0-0.5,0.1-0.9,0.3-1.3c0.2-0.4,0.4-0.7,0.6-0.9c0.2-0.2,0.6-0.6,1.2-1.1l11.5-10.9
			c0.3-0.2,0.6-0.3,1-0.3c0.4,0,0.7,0.1,1,0.4c0.3,0.3,0.4,0.6,0.4,0.9v1.7c0,0.2,0,0.4,0,0.5c0,0.2-0.1,0.3-0.1,0.4
			c0,0.1-0.1,0.2-0.2,0.4c-0.1,0.2-0.2,0.3-0.2,0.3c0,0.1-0.1,0.2-0.3,0.3c-0.2,0.2-0.3,0.3-0.3,0.3c0,0-0.2,0.1-0.4,0.3
			c-0.2,0.2-0.4,0.3-0.4,0.3l-8.9,8.7c-0.2,0.2-0.4,0.4-0.4,0.6S5,32,5.3,32.2l8.9,8.4c0.1,0.1,0.2,0.2,0.4,0.3
			c0.2,0.2,0.3,0.3,0.4,0.3c0.1,0.1,0.2,0.2,0.3,0.3c0.1,0.1,0.2,0.2,0.3,0.3c0.1,0.1,0.1,0.2,0.2,0.3c0.1,0.1,0.2,0.3,0.2,0.4
			c0,0.1,0.1,0.2,0.1,0.4c0,0.2,0,0.3,0,0.5v2c0,0.4-0.1,0.7-0.4,0.9C15.4,46.6,15.1,46.7,14.8,46.7z"/>
		<path class="st0" d="M25.9,57.6c-0.2,0-0.4-0.3-0.4-0.8c0,0,0-0.1,0-0.1c0-0.1,0-0.1,0-0.2l9.3-55.4C35,0.4,35.3,0,35.6,0H41
			c0.3,0,0.4,0.3,0.4,0.8c0,0.1,0,0.2,0,0.3l-9.3,55.4c-0.1,0.7-0.3,1.1-0.6,1.1L25.9,57.6z"/>
		<path class="st0" d="M50.2,51.2c-0.4,0-0.6-0.1-0.8-0.3c-0.2-0.2-0.2-0.6-0.2-1.2V8c0-0.6,0.1-1,0.2-1.2c0.2-0.2,0.4-0.3,0.8-0.3
			H56c0.4,0,0.6,0.1,0.8,0.3C56.9,6.9,57,7.3,57,8v16.5c0,0.2,0,0.4,0.1,0.5c0.1,0.1,0.2,0.2,0.3,0.2h11.9c0.1,0,0.2-0.1,0.3-0.2
			c0.1-0.2,0.2-0.3,0.2-0.5V8c0-0.6,0.1-1,0.3-1.2c0.2-0.2,0.4-0.3,0.8-0.3h5.8c0.3,0,0.6,0.1,0.8,0.3c0.2,0.2,0.2,0.6,0.2,1.2v41.8
			c0,0.6-0.1,1-0.2,1.2c-0.2,0.2-0.4,0.3-0.8,0.3h-5.8c-0.2,0-0.4,0-0.6-0.1c-0.1-0.1-0.3-0.2-0.4-0.4c-0.1-0.2-0.2-0.5-0.2-1v-19
			c0-0.4-0.1-0.7-0.4-0.7H57.5c-0.3,0-0.4,0.2-0.4,0.7v19c0,0.6-0.1,1-0.3,1.2c-0.2,0.2-0.4,0.3-0.8,0.3H50.2z"/>
		<path class="st0" d="M92.5,51.2c-0.3,0-0.6-0.1-0.7-0.3c-0.2-0.2-0.3-0.6-0.3-1.2V12.3c0-0.5-0.1-0.8-0.4-0.8h-6.9
			c-0.3,0-0.5,0-0.6,0c-0.1,0-0.2-0.1-0.3-0.3c-0.1-0.2-0.1-0.5-0.1-0.8V7.9c0-0.6,0.1-0.9,0.2-1.1c0.2-0.2,0.4-0.3,0.8-0.3h22.4
			c0.3,0,0.6,0.1,0.8,0.3c0.2,0.2,0.2,0.5,0.2,1.1v2.5c0,0.5-0.1,0.8-0.2,1c-0.1,0.1-0.4,0.2-0.8,0.2h-6.8c-0.3,0-0.4,0.3-0.4,0.8
			v37.4c0,0.6-0.1,1-0.3,1.2c-0.2,0.2-0.4,0.3-0.8,0.3H92.5z"/>
		<path class="st0" d="M113.3,51.2c-0.6,0-1-0.5-1-1.5v-0.2l1.8-41.3c0-1.1,0.4-1.7,1-1.8h6.3c0.4,0,0.7,0.1,1,0.3
			c0.3,0.2,0.5,0.6,0.6,1.2l6.7,29.4c0,0.1,0.1,0.1,0.1,0.2c0.1,0,0.1,0,0.2,0c0.1,0,0.1-0.1,0.1-0.2l6.7-29.3
			c0.2-1,0.8-1.5,1.5-1.6h6.3c0.6,0,1,0.6,1,1.8l1.9,41.3v0.2c0,1-0.3,1.5-1,1.5h-4.4c-0.6,0-1-0.6-1-1.7l-1.2-31.9
			c0-0.1,0-0.2-0.1-0.2s-0.1,0-0.2,0.1l-7.2,32.2c-0.2,1-0.7,1.5-1.3,1.5h-2.6c-0.6,0-1.1-0.5-1.3-1.5l-7-32.1
			c0-0.1-0.1-0.1-0.2-0.1c0,0,0,0.1,0,0.2l-1.3,31.8c0,1.1-0.3,1.7-0.9,1.7H113.3z"/>
		<path class="st0" d="M157,51.2c-0.3,0-0.6-0.1-0.8-0.3c-0.2-0.2-0.2-0.6-0.2-1.2V8c0-0.6,0.1-1,0.2-1.2c0.2-0.2,0.4-0.3,0.8-0.3
			h5.8c0.3,0,0.6,0.1,0.8,0.3c0.2,0.2,0.2,0.6,0.2,1.2v37.6c0,0.5,0.2,0.7,0.6,0.7h10.3c0.3,0,0.6,0.1,0.8,0.2
			c0.2,0.1,0.2,0.5,0.2,1V50c0,0.5-0.1,0.9-0.2,1c-0.2,0.2-0.4,0.2-0.8,0.2H157z"/>
		<path class="st0" d="M184.6,46.7c-0.4,0-0.7-0.1-1-0.4c-0.2-0.3-0.4-0.6-0.4-1v-1.7c0-0.1,0-0.3,0-0.4c0-0.1,0-0.3,0.1-0.4
			c0-0.1,0.1-0.2,0.1-0.3c0.1-0.1,0.1-0.2,0.1-0.3c0-0.1,0.1-0.2,0.2-0.3c0.1-0.1,0.2-0.2,0.2-0.2c0-0.1,0.1-0.1,0.2-0.3
			c0.1-0.1,0.2-0.2,0.3-0.2c0.1,0,0.2-0.1,0.3-0.3c0.2-0.1,0.3-0.2,0.3-0.3l8.9-8.7c0.2-0.2,0.3-0.4,0.3-0.6c0-0.2-0.1-0.4-0.4-0.5
			l-8.8-8.4c-0.1-0.1-0.2-0.2-0.5-0.4c-0.2-0.2-0.4-0.3-0.4-0.4c-0.1-0.1-0.2-0.2-0.3-0.3c-0.2-0.1-0.3-0.3-0.3-0.4
			c0-0.1-0.1-0.2-0.2-0.4c-0.1-0.2-0.1-0.3-0.2-0.5c0-0.2,0-0.4,0-0.6v-2c0-0.4,0.1-0.7,0.4-0.9c0.2-0.2,0.6-0.4,1-0.4
			c0.3,0,0.6,0.1,1,0.4l11.5,10.6c0.6,0.5,1,0.9,1.2,1.1c0.2,0.2,0.4,0.5,0.7,0.9c0.2,0.4,0.3,0.8,0.3,1.3v1.5c0,0.2,0,0.3,0,0.5
			c0,0.1-0.1,0.3-0.1,0.4c-0.1,0.1-0.1,0.3-0.1,0.4c0,0.1-0.1,0.2-0.2,0.4c-0.1,0.1-0.2,0.2-0.2,0.3s-0.1,0.2-0.3,0.4
			c-0.2,0.2-0.3,0.3-0.3,0.3c0,0-0.2,0.2-0.4,0.4c-0.2,0.2-0.4,0.3-0.4,0.4l-11.5,10.9C185.3,46.6,184.9,46.7,184.6,46.7z"/>
	</g>
</g>
</svg>
